<?xml version="1.0" encoding="utf-8"?>
<svg viewBox="0 0 420 420" fill="#000000" xmlns="http://www.w3.org/2000/svg">
  <g transform="matrix(0.9999999999999999, 0, 0, 0.9999999999999999, 0, -7.105427357601002e-15)">
    <g>
      <g>
        <path d="M 249.746 20.274 L 36.84 20.274 L 36.84 399.725 L 313.681 399.725 L 313.677 333.957 L 326.941 313.657 L 326.943 395.608 C 327.255 400.85 325.376 404.633 321.676 407.974 C 318.365 411.657 314.669 413.296 309.395 413 L 40.962 413.002 C 35.72 413.314 31.933 411.435 28.593 407.737 C 24.909 404.426 23.27 400.731 23.566 395.456 L 23.564 24.392 C 23.252 19.15 25.132 15.363 28.831 12.025 C 32.14 8.341 35.838 6.705 41.114 7 L 256.568 6.997 L 256.656 6.981 L 256.724 6.969 C 256.745 7 256.767 7.033 256.792 7.069 L 256.896 7.207 L 326.851 77.155 L 326.991 77.251 L 326.993 77.252 C 326.985 77.29 326.976 77.332 326.967 77.377 L 326.944 77.547 L 326.944 111.179 L 313.673 131.787 L 313.668 85.823 L 309.668 85.823 L 252.57 85.827 L 252.492 85.839 L 252.445 85.847 C 251.786 85.962 251.64 85.964 251.481 85.895 C 251.342 85.835 251.283 85.755 250.964 85.265 L 250.936 85.221 L 250.613 84.829 L 250.539 84.767 L 250.463 84.704 L 250.296 84.567 L 250.056 84.379 L 249.99 84.348 C 249.611 84.169 249.699 84.243 249.671 84.136 C 249.619 83.936 249.652 83.614 249.74 82.792 L 249.746 82.739 Z"/>
        <path d="M364.398,195.123l-11.271-7.364c-1.84-1.201-4.303-0.686-5.506,1.154l-60.688,92.866l-11.67-7.625l60.688-92.867 c1.203-1.841,0.687-4.304-1.153-5.506l-11.271-7.365c-1.84-1.202-4.305-0.686-5.506,1.154l-90.869,139.053 c-0.386,0.591-0.607,1.274-0.643,1.979l-2.375,48.258c-0.069,1.409,0.614,2.754,1.797,3.523c1.183,0.773,2.688,0.86,3.949,0.231 l43.243-21.553c0.634-0.313,1.17-0.793,1.558-1.385l90.867-139.052C366.754,198.79,366.236,196.326,364.398,195.123z"/>
        <path d="M401.631,138.145l-40.869-26.708c-1.838-1.201-4.304-0.685-5.506,1.154l-27.563,42.179 c-1.201,1.84-0.686,4.306,1.154,5.508l40.869,26.706c1.838,1.202,4.305,0.686,5.506-1.154l27.562-42.178 C403.988,141.812,403.471,139.347,401.631,138.145z"/>
        <path d="M83.563,87.462h78c5.523,0,10-4.478,10-10s-4.477-10-10-10h-78c-5.523,0-10,4.478-10,10S78.042,87.462,83.563,87.462z"/>
        <path d="M231.563,127.462c0-5.522-4.479-10-10-10h-138c-5.523,0-10,4.478-10,10s4.477,10,10,10h138 C227.086,137.462,231.563,132.984,231.563,127.462z"/>
        <path d="M83.563,187.462h78c5.523,0,10-4.478,10-10s-4.477-10-10-10h-78c-5.523,0-10,4.478-10,10S78.042,187.462,83.563,187.462z "/>
        <path d="M83.563,237.462h78c5.523,0,10-4.478,10-10c0-5.521-4.477-10-10-10h-78c-5.523,0-10,4.479-10,10 C73.563,232.984,78.042,237.462,83.563,237.462z"/>
        <path d="M87.796,366.694c-1.947,2.516,1.565,6.082,3.536,3.533c6.213-8.026,11.344-16.671,15.629-25.795 c2.674,1.679,6.185,1.343,9.065,0.205c4.151-1.637,7.67-4.796,11.021-7.655c1.981-1.69,4.287-4.481,7.029-4.748 c2.094-0.201,4.922,1.485,7.015,1.844c5.469,0.932,11.857-0.651,17.137-1.956c5.011-1.237,10.879-3.194,13.828-7.731 c1.763-2.712-2.568-5.216-4.317-2.521c-2.361,3.632-8.126,4.764-12.022,5.726c-4.573,1.131-9.879,2.246-14.592,1.442 c-3.552-0.604-6.425-2.752-10.077-1.125c-4.892,2.18-8.629,6.761-12.949,9.854c-1.933,1.384-4.142,2.714-6.56,2.901 c-0.995,0.077-1.806-0.288-2.48-0.896c0.532-1.234,1.06-2.474,1.563-3.725c4.876-12.104,7.081-24.396,9.344-37.146 c1.15-6.479,3.063-16.688-6.223-17.311c-8.205-0.548-15.296,11.287-17.918,17.524c-2.345,5.578-2.606,12.058-2.427,18.014 c0.111,3.712,1.447,7.566,2.432,11.404c-7.874,1.263-14.814,9.216-13.598,17.1c1.197,7.758,10.898,3.752,14.521,0.881 c3.667-2.905,4.854-6.534,4.893-10.448c0.731,1.205,1.342,2.65,1.974,4.002C99.395,349.544,94.098,358.552,87.796,366.694z M96.56,338.393c-0.74,3.298-4.913,6.554-8.199,6.858c-2.585,0.24-1.008-4.377-0.497-5.409c1.604-3.242,5.578-5.358,8.919-6.27 C96.939,335.199,96.914,336.811,96.56,338.393z M100.736,328.712c-0.851-3.976-2.032-7.969-2.338-11.583 c-0.592-6.975,0.647-14.284,4.106-20.384c2.161-3.812,6.566-9.654,11.239-10.154c4.173-0.444,1.628,9.705,1.267,11.744 c-1.117,6.294-1.914,12.541-3.471,18.763c-1.446,5.778-3.278,11.5-5.469,17.095C104.905,331.294,103.388,329.438,100.736,328.712 z"/>
      </g>
    </g>
  </g>
</svg>