<?xml version="1.0" encoding="utf-8"?>
<svg viewBox="0 0 399.999 399.999" fill="#000000" xmlns="http://www.w3.org/2000/svg">
  <g transform="matrix(1, 0, 0, 1, 0, 7.105427357601002e-15)">
    <g>
      <g>
        <path d="M 384.637 40.46 C 379.762 35.282 374.268 32.601 366.842 32.97 L 33.316 32.972 C 25.895 32.6 20.397 35.217 15.452 40.37 C 10.296 45.326 7.62 50.72 7.998 58.13 L 8 275.561 C 7.638 283.005 10.194 288.532 15.363 293.39 C 20.238 298.568 25.732 301.249 33.158 300.88 L 150.041 300.878 L 153.145 300.878 L 127.629 357.137 C 126.837 358.489 126.507 359.477 126.629 360.529 C 126.645 361.606 126.925 362.321 127.88 363.479 L 127.945 363.564 L 128.088 363.75 L 128.229 364.015 C 128.786 365.334 129.376 366.006 130.265 366.445 C 131.176 366.895 132.287 367.027 134.002 367.027 C 134.008 367.027 266.011 367.027 266.018 367.027 C 268.573 367.027 269.376 366.784 270.914 365.032 C 272.672 363.481 273.018 362.57 273.018 360.027 C 273.018 358.366 273.02 357.977 272.366 357.04 L 272.337 356.993 L 272.302 356.937 L 251.982 312.182 L 246.854 300.878 L 366.683 300.878 C 374.127 301.24 379.654 298.684 384.511 293.516 C 389.69 288.637 392.37 283.146 392.001 275.719 L 391.999 58.289 C 392.361 50.845 389.805 45.317 384.638 40.46 Z M 377.966 276.209 C 377.657 278.381 376.215 281.672 374.897 283.333 L 374.665 283.601 L 374.609 283.649 L 374.495 283.747 L 374.431 283.801 L 374.328 283.888 C 372.589 285.232 369.134 286.583 367.039 286.856 L 366.866 286.878 L 32.879 286.868 L 32.777 286.857 L 32.713 286.85 C 30.64 286.587 27.068 285.127 25.266 283.511 C 23.62 281.647 22.248 277.777 22.01 275.767 L 22 275.617 L 22.01 57.853 L 22.022 57.751 L 22.028 57.687 C 22.291 55.613 23.749 52.042 25.366 50.241 C 27.229 48.593 31.081 47.222 33.092 46.985 L 33.201 46.972 L 367.144 46.983 L 367.203 46.99 L 367.273 46.998 L 367.33 47.006 C 369.5 47.314 372.764 48.732 374.428 50.056 L 374.715 50.298 L 374.768 50.36 L 374.824 50.426 L 374.882 50.494 L 374.943 50.567 L 375.003 50.639 C 376.35 52.381 377.704 55.84 377.977 57.934 L 377.999 58.107 L 377.989 276.023 L 377.982 276.082 L 377.974 276.152 Z"/>
        <path d="M72.841,162.757c9.432,1.062,18.352-2.362,24.63-8.564l81.918,29.438c0.847,14.404,11.967,26.578,26.782,28.246 c16.561,1.867,31.552-10.088,33.418-26.647c0.132-1.175,0.188-2.34,0.184-3.496l69.132-50.434 c3.438,1.951,7.314,3.256,11.484,3.726c16.563,1.866,31.555-10.089,33.418-26.649c1.866-16.561-10.089-31.552-26.646-33.418 c-16.563-1.867-31.552,10.088-33.417,26.648c-0.599,5.302,0.226,10.438,2.161,15.04l-63.042,45.991 c-4.817-5.848-11.816-9.913-19.922-10.827c-11.481-1.292-22.203,4.06-28.324,12.979l-78.424-28.184 c0.021-0.167,0.05-0.331,0.067-0.5c1.867-16.561-10.088-31.552-26.647-33.416c-16.562-1.867-31.553,10.088-33.419,26.648 C44.326,145.897,56.281,160.89,72.841,162.757z M313.12,103.79c0.66-5.878,5.979-10.117,11.854-9.457 c5.876,0.663,10.12,5.98,9.457,11.858c-0.663,5.875-5.98,10.117-11.856,9.455C316.699,114.986,312.457,109.664,313.12,103.79z M198.897,180.643c0.662-5.874,5.982-10.117,11.856-9.454c5.877,0.662,10.119,5.981,9.458,11.856 c-0.664,5.877-5.982,10.118-11.859,9.456C202.479,191.838,198.236,186.521,198.897,180.643z M65.568,131.521 c0.663-5.876,5.983-10.118,11.858-9.456c5.877,0.663,10.118,5.981,9.456,11.858c-0.662,5.876-5.982,10.117-11.857,9.454 C69.147,142.716,64.906,137.396,65.568,131.521z"/>
        <path d="M323.797,151.467c-1.494,0-3.008-0.087-4.5-0.253c-3.189-0.36-6.287-1.09-9.256-2.178l-60.836,44.382 c-2.551,19.944-19.48,34.901-39.629,34.901c-1.494,0-3.008-0.084-4.498-0.253c-17.124-1.929-30.749-14.422-34.479-30.733 l-71.17-25.576c-6.74,4.832-14.778,7.441-23.186,7.441c0,0-0.001,0-0.002,0c-1.493,0-3.005-0.086-4.494-0.252 c-10.389-1.173-19.401-6.253-25.749-13.603v98.396h308V137.665C346.642,146.163,335.791,151.467,323.797,151.467z"/>
      </g>
    </g>
  </g>
</svg>